<svg class="variation-svg fade-enter-done" viewBox="91.36099999999999 -1.4800033569335938 392.27538590286656 565.0500049591064" xmlns="http://www.w3.org/2000/svg" xmlns:xlink="http://www.w3.org/1999/xlink" style="transform: scale(1);"><image height="289.9974365234375" width="252.27538590286656" y="68.5199966430664" x="161.361" preserveAspectRatio="xMinYMin" href="https://github.com/Ngai-E/resources/blob/main/favicon.png?raw=true" xlink:href="https://github.com/Ngai-E/resources/blob/main/favicon.png?raw=true" style="position: absolute;"></image><g><svg data-layer-type="text" y="482.2400016784668" viewBox="1.6800000667572021 4.289999961853027 52.57999801635742 11.329999923706055" x="261.21000038146974" height="11.329999923706055" width="52.57999801635742" style="position: absolute;"><g data-horizontal-grow="center" style="fill: rgb(22, 133, 81); font-size: 16px; font-weight: 500; font-style: normal; font-family: Montserrat; dominant-baseline: hanging; text-transform: uppercase; letter-spacing: 2px; fill-opacity: 1;"><path d="M9.58 5.68L3.28 5.68L3.28 9.58L8.90 9.58L8.90 10.96L3.28 10.96L3.28 15.49L1.68 15.49L1.68 4.29L9.58 4.29L9.58 5.68ZM18.48 15.62Q16.24 15.62 14.99 14.34Q13.74 13.06 13.74 10.66L13.74 10.66L13.74 4.29L15.34 4.29L15.34 10.59Q15.34 14.19 18.50 14.19L18.50 14.19Q20.03 14.19 20.85 13.30Q21.66 12.42 21.66 10.59L21.66 10.59L21.66 4.29L23.22 4.29L23.22 10.66Q23.22 13.07 21.97 14.34Q20.72 15.62 18.48 15.62L18.48 15.62ZM36.53 4.29L38.13 4.29L38.13 15.49L36.82 15.49L30.10 7.14L30.10 15.49L28.50 15.49L28.50 4.29L29.81 4.29L36.53 12.64L36.53 4.29ZM43.49 15.49L43.49 4.29L48.21 4.29Q49.98 4.29 51.36 4.99Q52.74 5.70 53.50 6.97Q54.26 8.24 54.26 9.89L54.26 9.89Q54.26 11.54 53.50 12.81Q52.74 14.08 51.36 14.78Q49.98 15.49 48.21 15.49L48.21 15.49L43.49 15.49ZM45.09 14.10L48.11 14.10Q49.47 14.10 50.50 13.57Q51.54 13.04 52.10 12.09Q52.66 11.14 52.66 9.89L52.66 9.89Q52.66 8.64 52.10 7.69Q51.54 6.74 50.50 6.21Q49.47 5.68 48.11 5.68L48.11 5.68L45.09 5.68L45.09 14.10Z" transform="translate(0, 0)"></path></g></svg></g><g><svg data-layer-type="text" y="390.7599983215332" viewBox="4.289999961853027 6.03000020980835 219.93017578125 69.08000183105469" x="177.5348992919922" height="69.08000183105469" width="219.93017578125" style="position: absolute;"><g data-horizontal-grow="center" style="fill: rgb(10, 96, 255); font-size: 67px; font-weight: 700; font-style: normal; font-family: Comfortaa; dominant-baseline: hanging; text-transform: capitalize; fill-opacity: 1; letter-spacing: -6px;"><path d="M30.15 59.70L30.15 59.70Q24.72 59.70 20.00 57.65Q15.28 55.61 11.76 51.96Q8.24 48.31 6.26 43.42Q4.29 38.52 4.29 32.83L4.29 32.83Q4.29 27.20 6.26 22.34Q8.24 17.49 11.76 13.84Q15.28 10.18 19.97 8.11Q24.66 6.03 30.15 6.03L30.15 6.03Q35.31 6.03 39.03 7.37Q42.75 8.71 46.50 11.79L46.50 11.79Q47.03 12.19 47.34 12.63Q47.64 13.06 47.74 13.50Q47.84 13.94 47.84 14.54L47.84 14.54Q47.84 15.81 46.93 16.65Q46.03 17.49 44.76 17.59Q43.48 17.69 42.28 16.75L42.28 16.75Q39.80 14.61 37.15 13.47Q34.51 12.33 30.15 12.33L30.15 12.33Q26.20 12.33 22.71 13.94Q19.23 15.54 16.58 18.36Q13.94 21.17 12.46 24.89Q10.99 28.61 10.99 32.83L10.99 32.83Q10.99 37.12 12.46 40.84Q13.94 44.55 16.58 47.37Q19.23 50.18 22.71 51.76Q26.20 53.33 30.15 53.33L30.15 53.33Q33.57 53.33 36.62 52.16Q39.66 50.99 42.48 48.91L42.48 48.91Q43.68 48.04 44.86 48.14Q46.03 48.24 46.83 49.08Q47.64 49.91 47.64 51.39L47.64 51.39Q47.64 52.06 47.37 52.70Q47.10 53.33 46.57 53.87L46.57 53.87Q42.95 56.75 38.83 58.22Q34.71 59.70 30.15 59.70ZM58.66 75.11L58.66 75.11Q57.99 75.11 57.05 74.70L57.05 74.70Q54.10 73.37 55.44 70.48L55.44 70.48L75.87 24.32Q77.21 21.51 80.09 22.71L80.09 22.71Q83.11 23.99 81.77 26.93L81.77 26.93L61.27 73.03Q60.46 75.11 58.66 75.11ZM66.56 57.55L66.56 57.55Q65.29 58.09 64.18 57.65Q63.08 57.22 62.41 55.95L62.41 55.95L47.06 26.80Q46.39 25.53 46.90 24.35Q47.40 23.18 48.67 22.65L48.67 22.65Q49.95 22.11 51.08 22.55Q52.22 22.98 52.83 24.25L52.83 24.25L67.50 53.40Q68.17 54.67 68.00 55.84Q67.83 57.02 66.56 57.55ZM85.62 74.70L85.62 74.70Q84.14 74.70 83.17 73.73Q82.20 72.76 82.20 71.29L82.20 71.29L82.20 40.74Q82.27 35.44 84.68 31.22Q87.09 27.00 91.25 24.56Q95.40 22.11 100.63 22.11L100.63 22.11Q105.92 22.11 110.07 24.56Q114.23 27.00 116.67 31.22Q119.12 35.44 119.12 40.74L119.12 40.74Q119.12 46.03 116.87 50.22Q114.63 54.40 110.74 56.85Q106.86 59.30 101.97 59.30L101.97 59.30Q98.01 59.30 94.70 57.65Q91.38 56.01 89.04 53.20L89.04 53.20L89.04 71.29Q89.04 72.76 88.10 73.73Q87.16 74.70 85.62 74.70ZM100.63 53.27L100.63 53.27Q104.04 53.27 106.72 51.62Q109.40 49.98 110.98 47.13Q112.55 44.29 112.55 40.74L112.55 40.74Q112.55 37.12 110.98 34.27Q109.40 31.42 106.72 29.78Q104.04 28.14 100.63 28.14L100.63 28.14Q97.28 28.14 94.56 29.78Q91.85 31.42 90.31 34.27Q88.77 37.12 88.77 40.74L88.77 40.74Q88.77 44.29 90.31 47.13Q91.85 49.98 94.56 51.62Q97.28 53.27 100.63 53.27ZM126.72 45.69L126.72 45.69Q125.25 45.69 124.27 44.72Q123.30 43.75 123.30 42.28L123.30 42.28L123.30 10.12Q123.30 8.58 124.27 7.64Q125.25 6.70 126.72 6.70L126.72 6.70Q128.26 6.70 129.20 7.64Q130.14 8.58 130.14 10.12L130.14 10.12L130.14 42.28Q130.14 43.75 129.20 44.72Q128.26 45.69 126.72 45.69ZM154.26 59.09L154.26 59.09Q152.78 59.09 151.81 58.12Q150.84 57.15 150.84 55.68L150.84 55.68L150.84 39.20Q150.84 35.38 149.43 32.96Q148.03 30.55 145.65 29.38Q143.27 28.21 140.19 28.21L140.19 28.21Q137.37 28.21 135.09 29.35Q132.82 30.48 131.48 32.39Q130.14 34.30 130.14 36.78L130.14 36.78L125.92 36.78Q125.92 32.56 127.96 29.25Q130.00 25.93 133.55 23.99Q137.10 22.04 141.53 22.04L141.53 22.04Q146.15 22.04 149.80 24.02Q153.45 26.00 155.56 29.81Q157.67 33.63 157.67 39.20L157.67 39.20L157.67 55.68Q157.67 57.15 156.70 58.12Q155.73 59.09 154.26 59.09ZM126.72 59.09L126.72 59.09Q125.25 59.09 124.27 58.12Q123.30 57.15 123.30 55.68L123.30 55.68L123.30 25.80Q123.30 24.25 124.27 23.32Q125.25 22.38 126.72 22.38L126.72 22.38Q128.26 22.38 129.20 23.32Q130.14 24.25 130.14 25.80L130.14 25.80L130.14 55.68Q130.14 57.15 129.20 58.12Q128.26 59.09 126.72 59.09ZM180.28 59.30L180.28 59.30Q174.72 59.30 170.40 56.92Q166.08 54.54 163.63 50.35Q161.19 46.16 161.19 40.74L161.19 40.74Q161.19 35.24 163.50 31.05Q165.81 26.87 169.90 24.49Q173.98 22.11 179.28 22.11L179.28 22.11Q184.50 22.11 188.26 24.42Q192.01 26.73 193.98 30.79Q195.96 34.84 195.96 40.13L195.96 40.13Q195.96 41.41 195.09 42.24Q194.22 43.08 192.88 43.08L192.88 43.08L165.88 43.08L165.88 37.72L192.68 37.72L189.93 39.60Q189.86 36.25 188.59 33.60Q187.32 30.95 184.97 29.41Q182.63 27.87 179.28 27.87L179.28 27.87Q175.46 27.87 172.75 29.55Q170.03 31.22 168.63 34.14Q167.22 37.05 167.22 40.74L167.22 40.74Q167.22 44.42 168.89 47.30Q170.57 50.18 173.52 51.86Q176.46 53.53 180.28 53.53L180.28 53.53Q182.36 53.53 184.54 52.76Q186.72 51.99 188.06 50.99L188.06 50.99Q189.06 50.25 190.23 50.22Q191.41 50.18 192.28 50.92L192.28 50.92Q193.41 51.92 193.48 53.13Q193.55 54.34 192.41 55.21L192.41 55.21Q190.13 57.02 186.75 58.16Q183.37 59.30 180.28 59.30ZM205.37 36.11L201.95 36.11Q201.95 32.09 203.93 28.91Q205.91 25.73 209.26 23.85Q212.61 21.98 216.63 21.98L216.63 21.98Q220.65 21.98 222.62 23.28Q224.60 24.59 224.13 26.40L224.13 26.40Q223.93 27.34 223.36 27.84Q222.79 28.34 222.05 28.47Q221.32 28.61 220.45 28.41L220.45 28.41Q216.16 27.54 212.74 28.27Q209.32 29.01 207.35 31.02Q205.37 33.03 205.37 36.11L205.37 36.11ZM202.02 59.03L202.02 59.03Q200.41 59.03 199.54 58.19Q198.67 57.35 198.67 55.68L198.67 55.68L198.67 25.73Q198.67 24.12 199.54 23.25Q200.41 22.38 202.02 22.38L202.02 22.38Q203.70 22.38 204.53 23.22Q205.37 24.05 205.37 25.73L205.37 25.73L205.37 55.68Q205.37 57.29 204.53 58.16Q203.70 59.03 202.02 59.03Z" transform="translate(0, 0)"></path></g></svg></g></svg>
